<svg id="svg2" xmlns="http://www.w3.org/2000/svg" viewBox="0 0 1264.5 1259.22">
  <defs>
    <style>
      .cls-1 {
        fill: #fff;
      }

      .cls-2 {
        fill: gold;
      }
    </style>
  </defs>
  <title>star-half</title>
  <path id="path2987" class="cls-1" d="M1339.4,1606.7c-26.7-18.6-74.2-51.6-105.7-73.2s-73.1-50.4-92.6-63.8c-108.8-75.1-137-93.8-141.2-93.8s-28.1,15.9-151.4,100.9c-25.1,17.3-71.8,49.2-103.7,70.8s-74.7,50.7-95,64.5-37.6,24.6-38.3,23.8,5.2-25.5,13.1-55c27.3-101.6,105.7-406.6,105.7-410.9,0-2.4-40.5-38.7-90-80.7S517.5,984.9,477.4,950.7s-81-68.9-90.9-77.1l-17.9-14.8,109.3-5c217.2-9.9,354.1-17.8,357-20.6,1.6-1.5,14.3-34.5,28.4-73.3,49.1-136,137.3-376.8,138.5-378.4.8-1,14.4,36.1,54.5,148.1,44.6,124.5,110,304.5,111.2,305.7s153.1,9.8,311.7,17.8c45.6,2.3,98.7,5.4,118,6.8l35,2.6-10.1,8.1c-11.9,9.6-153.8,129-255,214.7-39.1,33.1-77.2,65.2-84.7,71.3l-13.7,11.2,14.8,57.3c8.1,31.5,29,112.7,46.3,180.6s37.9,148,45.7,178.2,13.8,55.2,13.4,55.7C1388.2,1640.2,1366,1625.3,1339.4,1606.7Z" transform="translate(-367.7 -380.4)"/>
  <path id="path2987-2" data-name="path2987" class="cls-2" d="M999,1374.8c-4.2,0-28.1,15.9-151.4,100.9-25.1,17.3-71.8,49.2-103.7,70.8s-74.7,50.7-95,64.5-37.6,24.6-38.3,23.8,5.2-25.5,13.1-55c27.3-101.6,105.7-406.6,105.7-410.9,0-2.4-40.5-38.7-90-80.7S516.6,983.8,476.5,949.6s-81-68.9-90.9-77.1l-17.9-14.8,109.3-5c217.2-9.9,354.1-17.8,357-20.6,1.6-1.5,14.3-34.5,28.4-73.3,49.1-136,137.3-376.8,138.5-378.4C1001.5,379.5,1003.1,1374.8,999,1374.8Z" transform="translate(-367.7 -380.4)"/>
</svg>
