<?xml version="1.0" encoding="utf-8"?>
<!-- Generator: Adobe Illustrator 22.1.0, SVG Export Plug-In . SVG Version: 6.00 Build 0)  -->
<svg version="1.1"
	 id="svg2" inkscape:version="0.48.4 r9939" sodipodi:docname="2000px-Full_Star_Yellow.svg.png" xmlns:cc="http://creativecommons.org/ns#" xmlns:dc="http://purl.org/dc/elements/1.1/" xmlns:inkscape="http://www.inkscape.org/namespaces/inkscape" xmlns:rdf="http://www.w3.org/1999/02/22-rdf-syntax-ns#" xmlns:sodipodi="http://sodipodi.sourceforge.net/DTD/sodipodi-0.dtd" xmlns:svg="http://www.w3.org/2000/svg"
	 xmlns="http://www.w3.org/2000/svg" xmlns:xlink="http://www.w3.org/1999/xlink" x="0px" y="0px" viewBox="0 0 2000 2000"
	 style="enable-background:new 0 0 2000 2000;" xml:space="preserve">
<style type="text/css">
	.st0{fill:#FCE408;stroke:#000000;stroke-width:50;stroke-miterlimit:10;}
</style>
<sodipodi:namedview  bordercolor="#666666" borderopacity="1" gridtolerance="10" guidetolerance="10" id="namedview4" inkscape:current-layer="svg2" inkscape:cx="1000" inkscape:cy="585.18326" inkscape:pageopacity="0" inkscape:pageshadow="2" inkscape:window-height="720" inkscape:window-maximized="1" inkscape:window-width="1280" inkscape:window-x="-8" inkscape:window-y="-8" inkscape:zoom="0.24107031" objecttolerance="10" pagecolor="#ffffff" showgrid="false">
	</sodipodi:namedview>
<path id="path2987" inkscape:connector-curvature="0" class="st0" d="M1339.4,1606.7c-26.7-18.6-74.2-51.6-105.7-73.2
	s-73.1-50.4-92.6-63.8c-108.8-75.1-137-93.8-141.2-93.8s-28.1,15.9-151.4,100.9c-25.1,17.3-71.8,49.2-103.7,70.8
	c-31.9,21.7-74.7,50.7-95,64.5s-37.6,24.6-38.3,23.8c-0.7-0.7,5.2-25.5,13.1-55c27.3-101.6,105.7-406.6,105.7-410.9
	c0-2.4-40.5-38.7-90-80.7S517.5,984.9,477.4,950.7c-40.1-34.2-81-68.9-90.9-77.1l-17.9-14.8l109.3-5c217.2-9.9,354.1-17.8,357-20.6
	c1.6-1.5,14.3-34.5,28.4-73.3c49.1-136,137.3-376.8,138.5-378.4c0.8-1,14.4,36.1,54.5,148.1c44.6,124.5,110,304.5,111.2,305.7
	c1.1,1.1,153.1,9.8,311.7,17.8c45.6,2.3,98.7,5.4,118,6.8l35,2.6l-10.1,8.1c-11.9,9.6-153.8,129-255,214.7
	c-39.1,33.1-77.2,65.2-84.7,71.3l-13.7,11.2l14.8,57.3c8.1,31.5,29,112.7,46.3,180.6s37.9,148,45.7,178.2
	c7.8,30.2,13.8,55.2,13.4,55.7C1388.2,1640.2,1366,1625.3,1339.4,1606.7z"/>
</svg>
